# xmcd
#
# Track frame offsets:
#	150
#	18093
#	41090
#	65174
#	87143
#	104958
#
# Disc length: 1642 seconds
#
# Revision: 1
# Processed by: cddbd v1.5.2PL0 Copyright (c) Steve Scherf et al.
# Submitted via: audiograbber 1.83.01
#
DISCID=4e066806
DTITLE=Travellin' Brothers - One Day In Norway
DYEAR=2016
DGENRE=Blues
TTITLE0=The Best Is Yet To Come
TTITLE1=Thunderstorm Blues
TTITLE2=Frenchmen Street
TTITLE3=Lost and Found
TTITLE4=Josephine
TTITLE5=Make Me Down A Pallet On Your Floor
EXTD=
EXTT0=
EXTT1=
EXTT2=
EXTT3=
EXTT4=
EXTT5=
PLAYORDER=
